<svg xmlns="http://www.w3.org/2000/svg" viewBox="0 0 64 64"><defs><style>.cls-1{fill:#272835;}</style></defs><title>8-Add Friend</title><g id="_8-Add_Friend" data-name="8-Add Friend"><path class="cls-1" d="M61,24.44A30,30,0,0,1,54.34,52H45V38a1,1,0,0,0-.11-.45l-1-2a1,1,0,0,0-.5-.47l-6.63-2.87-.54-1.67A8.2,8.2,0,0,0,39,24V16a1,1,0,0,0-.29-.71A9.73,9.73,0,0,0,32,13a9.73,9.73,0,0,0-6.71,2.29A1,1,0,0,0,25,16v8a8.2,8.2,0,0,0,2.77,6.54l-.54,1.67L20.6,35.08a1,1,0,0,0-.5.47l-1,2A1,1,0,0,0,19,38V52H9.66A30,30,0,0,1,39.77,3l.52-1.93A32,32,0,1,0,63,23.94Zm-34-8A8.31,8.31,0,0,1,32,15a8.31,8.31,0,0,1,5,1.47v4.39c-.5-.13-1-.38-1-.86a1,1,0,0,0-1-1H29a1,1,0,0,0-1,1c0,.47-.5.72-1,.86ZM27,24V22.91A3.55,3.55,0,0,0,29.82,21h4.36A3.55,3.55,0,0,0,37,22.91V24c0,2.77-1.31,6-5,6S27,26.77,27,24Zm7.84,8.75L32,35.59l-2.84-2.84.38-1.19a7,7,0,0,0,4.9,0ZM21,38.24l.73-1.46,6-2.61L31,37.41V41h2V37.41l3.25-3.25,6,2.61L43,38.24V52H40V47H38v5H26V47H24v5H21ZM32,62a29.88,29.88,0,0,1-20.37-8H52.37A29.88,29.88,0,0,1,32,62Z"/><path class="cls-1" d="M32,8V6A25,25,0,0,0,7,31H9A23,23,0,0,1,32,8Z"/><rect class="cls-1" x="7" y="33" width="2" height="2"/><path class="cls-1" d="M52,24A12,12,0,1,0,40,12,12,12,0,0,0,52,24ZM52,2A10,10,0,1,1,42,12,10,10,0,0,1,52,2Z"/><polygon class="cls-1" points="51 18 53 18 53 13 58 13 58 11 53 11 53 6 51 6 51 11 46 11 46 13 51 13 51 18"/></g></svg>