<svg id="_01-calendar" data-name="01-calendar" xmlns="http://www.w3.org/2000/svg" viewBox="0 0 48 48"><title>01-calendar</title><path d="M44,5V7a2,2,0,0,1-4,0V3a2.006,2.006,0,0,1,2-2,1.955,1.955,0,0,1,1.41.59A1.955,1.955,0,0,1,44,3Z" style="fill:#ff73a5"/><path d="M35,5V7a2,2,0,0,1-4,0V3a2.006,2.006,0,0,1,2-2,1.955,1.955,0,0,1,1.41.59A1.955,1.955,0,0,1,35,3Z" style="fill:#ff73a5"/><path d="M26,5V7a2,2,0,0,1-4,0V3a2.006,2.006,0,0,1,2-2,1.955,1.955,0,0,1,1.41.59A1.955,1.955,0,0,1,26,3Z" style="fill:#ff73a5"/><path d="M17,5V7a2,2,0,0,1-4,0V3a2.006,2.006,0,0,1,2-2,1.955,1.955,0,0,1,1.41.59A1.955,1.955,0,0,1,17,3Z" style="fill:#ff73a5"/><path d="M8,5V7A2,2,0,0,1,4,7V3A2.006,2.006,0,0,1,6,1a1.955,1.955,0,0,1,1.41.59A1.955,1.955,0,0,1,8,3Z" style="fill:#ff73a5"/><path d="M45,5a2.006,2.006,0,0,1,2,2v6H1V7A2.006,2.006,0,0,1,3,5H4V7A2,2,0,0,0,8,7V5h5V7a2,2,0,0,0,4,0V5h5V7a2,2,0,0,0,4,0V5h5V7a2,2,0,0,0,4,0V5h5V7a2,2,0,0,0,4,0V5Z" style="fill:#a260e5"/><path d="M33,13H1V45a2.006,2.006,0,0,0,2,2H45a2.006,2.006,0,0,0,2-2V13ZM5,29a2,2,0,1,1,2,2A2.006,2.006,0,0,1,5,29Zm8,14-3-1L7,43l1.2-2.2L7,39H9l1-2,1,2h2l-1.2,1.8Zm0-25a2,2,0,1,1,2,2A2.006,2.006,0,0,1,13,18Zm17.5,3.83L30,22l1.2-2.2L30,18h2l1-2,1,2h2l-1.2,1.8L36,22l-3-1ZM37,43a2,2,0,1,1,2-2A2.006,2.006,0,0,1,37,43Zm6-10-4-2-4,2,1-4-2-3h3l2-3,2,3h3l-2,3Z" style="fill:#ffcfe2"/><path d="M45,45H3a2.006,2.006,0,0,1-2-2v2a2.006,2.006,0,0,0,2,2H45a2.006,2.006,0,0,0,2-2V43A2.006,2.006,0,0,1,45,45Z" style="fill:#ffa1c8"/><path d="M45,46H3a2.006,2.006,0,0,1-2-2v1a2.006,2.006,0,0,0,2,2H45a2.006,2.006,0,0,0,2-2V44A2.006,2.006,0,0,1,45,46Z" style="fill:#ff73a5"/><path d="M24,43a1,1,0,0,1-1-1V32a1,1,0,0,1,2,0V42A1,1,0,0,1,24,43Z" style="fill:#ffa8ad"/><path d="M24,26a1,1,0,0,1-1-1V19a1,1,0,0,1,2,0v6A1,1,0,0,1,24,26Z" style="fill:#ffa8ad"/><path d="M35,37.87a1,1,0,0,1-.889-.54A7.98,7.98,0,0,0,27,33a1,1,0,0,1,0-2,9.971,9.971,0,0,1,8.888,5.411A1,1,0,0,1,35,37.87Z" style="fill:#ffa8ad"/><path d="M13,37.87a1,1,0,0,1-.887-1.46A9.985,9.985,0,0,1,21,31a1,1,0,0,1,0,2,7.991,7.991,0,0,0-7.112,4.331A1,1,0,0,1,13,37.87Z" style="fill:#ff8fb8"/><path d="M20,30H11a1,1,0,0,1,0-2h9a1,1,0,0,1,0,2Z" style="fill:#ffa3ff"/><path d="M32,30H28a1,1,0,0,1,0-2h4a1,1,0,0,1,0,2Z" style="fill:#ffa3ff"/><path d="M22,27c-.209,0-.418-.01-.617-.021a7.934,7.934,0,0,1-6.907-4.6,1,1,0,1,1,1.848-.762,5.927,5.927,0,0,0,5.183,3.363c.152.009.322.018.493.018a1,1,0,0,1,0,2Z" style="fill:#ff8fb8"/><path d="M26,27a1,1,0,0,1,0-2,6.552,6.552,0,0,0,4.527-1.721,1,1,0,1,1,1.386,1.442A8.572,8.572,0,0,1,26,27Z" style="fill:#ff8fb8"/><path d="M6,9A2.006,2.006,0,0,1,4,7V9A2,2,0,0,0,8,9V7A2.006,2.006,0,0,1,6,9Z" style="fill:#8f4cd6"/><path d="M15,9a2.006,2.006,0,0,1-2-2V9a2,2,0,0,0,4,0V7A2.006,2.006,0,0,1,15,9Z" style="fill:#8f4cd6"/><path d="M24,9a2.006,2.006,0,0,1-2-2V9a2,2,0,0,0,4,0V7A2.006,2.006,0,0,1,24,9Z" style="fill:#8f4cd6"/><path d="M33,9a2.006,2.006,0,0,1-2-2V9a2,2,0,0,0,4,0V7A2.006,2.006,0,0,1,33,9Z" style="fill:#8f4cd6"/><path d="M42,9a2.006,2.006,0,0,1-2-2V9a2,2,0,0,0,4,0V7A2.006,2.006,0,0,1,42,9Z" style="fill:#8f4cd6"/><path d="M6,3V1A2.006,2.006,0,0,0,4,3V5A2.006,2.006,0,0,1,6,3Z" style="fill:#ff8fb8"/><path d="M7.41,1.59A1.955,1.955,0,0,0,6,1V3A2.015,2.015,0,0,1,8,5V3A1.955,1.955,0,0,0,7.41,1.59Z" style="fill:#ffb9d5"/><path d="M6,3V9A2.006,2.006,0,0,0,8,7V5A2.015,2.015,0,0,0,6,3Z" style="fill:#ff8fb8"/><path d="M15,3V1a2.006,2.006,0,0,0-2,2V5A2.006,2.006,0,0,1,15,3Z" style="fill:#ff8fb8"/><path d="M16.41,1.59A1.955,1.955,0,0,0,15,1V3a2.015,2.015,0,0,1,2,2V3A1.955,1.955,0,0,0,16.41,1.59Z" style="fill:#ffb9d5"/><path d="M15,3V9a2.006,2.006,0,0,0,2-2V5a2.015,2.015,0,0,0-2-2Z" style="fill:#ff8fb8"/><path d="M24,3V1a2.006,2.006,0,0,0-2,2V5A2.006,2.006,0,0,1,24,3Z" style="fill:#ff8fb8"/><path d="M25.41,1.59A1.955,1.955,0,0,0,24,1V3a2.015,2.015,0,0,1,2,2V3A1.955,1.955,0,0,0,25.41,1.59Z" style="fill:#ffb9d5"/><path d="M24,3V9a2.006,2.006,0,0,0,2-2V5a2.015,2.015,0,0,0-2-2Z" style="fill:#ff8fb8"/><path d="M33,3V1a2.006,2.006,0,0,0-2,2V5A2.006,2.006,0,0,1,33,3Z" style="fill:#ff8fb8"/><path d="M34.41,1.59A1.955,1.955,0,0,0,33,1V3a2.015,2.015,0,0,1,2,2V3A1.955,1.955,0,0,0,34.41,1.59Z" style="fill:#ffb9d5"/><path d="M33,3V9a2.006,2.006,0,0,0,2-2V5a2.015,2.015,0,0,0-2-2Z" style="fill:#ff8fb8"/><path d="M42,3V1a2.006,2.006,0,0,0-2,2V5A2.006,2.006,0,0,1,42,3Z" style="fill:#ff8fb8"/><path d="M43.41,1.59A1.955,1.955,0,0,0,42,1V3a2.015,2.015,0,0,1,2,2V3A1.955,1.955,0,0,0,43.41,1.59Z" style="fill:#ffb9d5"/><path d="M42,3V9a2.006,2.006,0,0,0,2-2V5a2.015,2.015,0,0,0-2-2Z" style="fill:#ff8fb8"/><rect x="17" y="5" width="5" height="1" style="fill:#e0b8ff"/><rect x="26" y="5" width="5" height="1" style="fill:#e0b8ff"/><rect x="8" y="5" width="5" height="1" style="fill:#e0b8ff"/><path d="M45,5H44V6h1a2,2,0,0,1,2,2V7A2.006,2.006,0,0,0,45,5Z" style="fill:#e0b8ff"/><rect x="35" y="5" width="5" height="1" style="fill:#e0b8ff"/><path d="M3,6H4V5H3A2.006,2.006,0,0,0,1,7V8A2,2,0,0,1,3,6Z" style="fill:#e0b8ff"/><rect x="8" y="6" width="5" height="1" style="fill:#b674f2"/><rect x="17" y="6" width="5" height="1" style="fill:#b674f2"/><path d="M3,7H4V6H3A2,2,0,0,0,1,8V9A2,2,0,0,1,3,7Z" style="fill:#b674f2"/><rect x="35" y="6" width="5" height="1" style="fill:#b674f2"/><path d="M45,6H44V7h1a2,2,0,0,1,2,2V8A2,2,0,0,0,45,6Z" style="fill:#b674f2"/><rect x="26" y="6" width="5" height="1" style="fill:#b674f2"/><rect x="1" y="12" width="46" height="1" style="fill:#8f4cd6"/><rect x="1" y="13" width="46" height="1" style="fill:#ff8fb8"/><circle cx="37" cy="41" r="2" style="fill:#a7e340"/><circle cx="15" cy="18" r="2" style="fill:#80dbff"/><circle cx="7" cy="29" r="2" style="fill:#a7e340"/><polygon points="36 18 34.8 19.8 36 22 33 21 30.5 21.83 30 22 31.2 19.8 30 18 32 18 33 16 34 18 36 18" style="fill:#fffd78"/><polygon points="44 26 42 29 43 33 39 31 35 33 36 29 34 26 37 26 39 23 41 26 44 26" style="fill:#fffd78"/><polygon points="13 39 11.8 40.8 13 43 10 42 7 43 8.2 40.8 7 39 9 39 10 37 11 39 13 39" style="fill:#ffa426"/><circle cx="15" cy="18" r="1" style="fill:#b5efff"/><circle cx="7" cy="29" r="1" style="fill:#bdf052"/><circle cx="37" cy="41" r="1" style="fill:#bdf052"/><path d="M44.882,25.528A1,1,0,0,0,44,25H41.535l-1.7-2.555a1.039,1.039,0,0,0-1.664,0L36.465,25H34a1,1,0,0,0-.832,1.555l1.754,2.632-.892,3.57A1,1,0,0,0,35.447,33.9L39,32.118,42.553,33.9A1.008,1.008,0,0,0,43,34a1,1,0,0,0,.97-1.243l-.892-3.57,1.754-2.632A1,1,0,0,0,44.882,25.528Z" style="fill:#ff73a5"/><path d="M35.967,19.852l.865-1.3A1,1,0,0,0,36,17H34.618L33.9,15.553a1.042,1.042,0,0,0-1.79,0L31.382,17H30a1,1,0,0,0-.832,1.555l.865,1.3-.911,1.669a1,1,0,0,0,1.2,1.426L33,22.054l2.684.9a1,1,0,0,0,1.194-1.428Z" style="fill:#ff8fb8"/><path d="M12.967,40.852l.865-1.3A1,1,0,0,0,13,38H11.618L10.9,36.553a1.042,1.042,0,0,0-1.79,0L8.382,38H7a1,1,0,0,0-.832,1.555l.865,1.3-.911,1.669a1,1,0,0,0,1.2,1.426L10,43.054l2.684.895a1,1,0,0,0,1.194-1.428Z" style="fill:#ff8fb8"/><polygon points="34 18 33 16 33 19 34 18" style="fill:#f2d813"/><polygon points="33 16 32 18 33 19 33 16" style="fill:#ffa426"/><polygon points="34.8 19.8 34.8 19.8 36 18 33 19 34.8 19.8" style="fill:#ffa426"/><polygon points="32 18 30 18 33 19 32 18" style="fill:#f2d813"/><polygon points="36 18 34 18 33 19 36 18" style="fill:#ffc247"/><polygon points="30 18 31.2 19.8 31.2 19.8 33 19 30 18" style="fill:#ffc247"/><polygon points="33 21 36 22 33 19 33 21" style="fill:#ffa426"/><polygon points="33 19 36 22 34.8 19.8 33 19" style="fill:#f2d813"/><polygon points="31.2 19.8 30 22 33 19 31.2 19.8" style="fill:#ffa426"/><polygon points="30 22 33 21 33 19 30 22" style="fill:#ffc247"/><polygon points="11 39 10 37 10 40 11 39" style="fill:#f2d813"/><polygon points="10 37 9 39 10 40 10 37" style="fill:#ffa426"/><polygon points="11.8 40.8 11.8 40.8 13 39 10 40 11.8 40.8" style="fill:#ffa426"/><polygon points="9 39 7 39 10 40 9 39" style="fill:#f2d813"/><polygon points="13 39 11 39 10 40 13 39" style="fill:#ffc247"/><polygon points="7 39 8.2 40.8 8.2 40.8 10 40 7 39" style="fill:#ffc247"/><polygon points="10 42 13 43 10 40 10 42" style="fill:#ffa426"/><polygon points="10 40 13 43 11.8 40.8 10 40" style="fill:#f2d813"/><polygon points="8.2 40.8 7 43 10 40 8.2 40.8" style="fill:#ffa426"/><polygon points="7 43 10 42 10 40 7 43" style="fill:#ffc247"/><polygon points="39 23 37 26 39 28 39 23" style="fill:#ffa426"/><polygon points="41 26 39 23 39 28 41 26" style="fill:#f2d813"/><polygon points="44 26 41 26 39 28 44 26" style="fill:#ffc247"/><polygon points="37 26 34 26 39 28 37 26" style="fill:#f2d813"/><polygon points="42 29 44 26 39 28 42 29" style="fill:#ffa426"/><polygon points="39 28 43 33 42 29 39 28" style="fill:#f2d813"/><polygon points="39 31 43 33 39 28 39 31" style="fill:#ffa426"/><polygon points="35 33 39 31 39 28 35 33" style="fill:#ffc247"/><polygon points="36 29 35 33 39 28 36 29" style="fill:#ffa426"/><polygon points="34 26 36 29 39 28 34 26" style="fill:#ffc247"/><rect x="37" y="12" width="6" height="1" rx="0.5" ry="0.5" style="fill:#7a3eb5"/><path d="M43.5,12.5a.5.5,0,0,0,.5.5h1a.5.5,0,0,0,0-1H44A.5.5,0,0,0,43.5,12.5Z" style="fill:#7a3eb5"/><path d="M4.5,46.5A.5.5,0,0,0,5,47H20a.5.5,0,0,0,0-1H5A.5.5,0,0,0,4.5,46.5Z" style="fill:#ff468c"/><path d="M21.5,46.5a.5.5,0,0,0,.5.5h1a.5.5,0,0,0,0-1H22A.5.5,0,0,0,21.5,46.5Z" style="fill:#ff468c"/><ellipse cx="43.003" cy="41.987" rx="1.642" ry="2.286" transform="translate(-17.094 42.726) rotate(-45.02)" style="fill:#f6fafd"/><ellipse cx="43" cy="38" rx="0.825" ry="1.148" transform="translate(-14.274 41.555) rotate(-45.02)" style="fill:#f6fafd"/><ellipse cx="42.746" cy="2.5" rx="0.413" ry="0.574" transform="translate(10.762 30.969) rotate(-45.02)" style="fill:#f6fafd"/><ellipse cx="15.746" cy="17.5" rx="0.413" ry="0.574" transform="translate(-7.763 16.268) rotate(-45.02)" style="fill:#f6fafd"/><ellipse cx="7.746" cy="28.5" rx="0.413" ry="0.574" transform="translate(-17.889 13.833) rotate(-45.02)" style="fill:#f6fafd"/><ellipse cx="37.746" cy="40.5" rx="0.413" ry="0.574" transform="translate(-17.583 38.572) rotate(-45.02)" style="fill:#f6fafd"/><ellipse cx="33.746" cy="2.5" rx="0.413" ry="0.574" transform="translate(8.124 24.603) rotate(-45.02)" style="fill:#f6fafd"/><ellipse cx="24.746" cy="2.5" rx="0.413" ry="0.574" transform="translate(5.485 18.237) rotate(-45.02)" style="fill:#f6fafd"/><ellipse cx="15.746" cy="2.5" rx="0.413" ry="0.574" transform="translate(2.847 11.871) rotate(-45.02)" style="fill:#f6fafd"/><ellipse cx="6.746" cy="2.5" rx="0.413" ry="0.574" transform="translate(0.209 5.505) rotate(-45.02)" style="fill:#f6fafd"/><path d="M11.484,23.434l.432-.652a.506.506,0,0,0,.025-.516A.5.5,0,0,0,11.5,22h-.691l-.362-.728a.519.519,0,0,0-.894,0L9.191,22H8.5a.5.5,0,0,0-.441.266.506.506,0,0,0,.025.516l.432.652-.455.839a.508.508,0,0,0,.055.564.5.5,0,0,0,.542.154L10,24.541l1.342.45a.508.508,0,0,0,.158.026.5.5,0,0,0,.384-.18.508.508,0,0,0,.055-.564Z" style="fill:#ff8fb8"/><path d="M30.484,38.434l.432-.652a.506.506,0,0,0,.025-.516A.5.5,0,0,0,30.5,37h-.691l-.362-.728a.519.519,0,0,0-.894,0L28.191,37H27.5a.5.5,0,0,0-.441.266.506.506,0,0,0,.025.516l.432.652-.455.839a.508.508,0,0,0,.055.564.5.5,0,0,0,.542.154L29,39.541l1.342.45a.508.508,0,0,0,.158.026.5.5,0,0,0,.384-.18.508.508,0,0,0,.055-.564Z" style="fill:#ff8fb8"/><path d="M41.484,19.434l.432-.652a.506.506,0,0,0,.025-.516A.5.5,0,0,0,41.5,18h-.691l-.362-.728a.519.519,0,0,0-.894,0L39.191,18H38.5a.5.5,0,0,0-.441.266.506.506,0,0,0,.025.516l.432.652-.455.839a.508.508,0,0,0,.055.564.5.5,0,0,0,.542.154L40,20.541l1.342.45a.508.508,0,0,0,.158.026.5.5,0,0,0,.384-.18.508.508,0,0,0,.055-.564Z" style="fill:#a260e5"/><path d="M7.484,35.434l.432-.652a.506.506,0,0,0,.025-.516A.5.5,0,0,0,7.5,34H6.809l-.362-.728a.519.519,0,0,0-.894,0L5.191,34H4.5a.5.5,0,0,0-.441.266.506.506,0,0,0,.025.516l.432.652-.455.839a.508.508,0,0,0,.055.564.5.5,0,0,0,.542.154L6,36.541l1.342.45a.508.508,0,0,0,.158.026.5.5,0,0,0,.384-.18.508.508,0,0,0,.055-.564Z" style="fill:#a260e5"/><path d="M46,45a1,1,0,0,1-1,1H3a1,1,0,0,1-1-1V18H0V45a3,3,0,0,0,3,3H45a3,3,0,0,0,3-3V43H46Z"/><rect x="46" y="39" width="2" height="2"/><path d="M45,4V3a3,3,0,0,0-6,0V4H36V3a3,3,0,0,0-6,0V4H27V3a3,3,0,0,0-6,0V4H18V3a3,3,0,0,0-6,0V4H9V3A3,3,0,0,0,3,3V4A3,3,0,0,0,0,7v9H2V14H38V12H2V7A1,1,0,0,1,3,6V7A3,3,0,0,0,9,7V6h3V7a3,3,0,0,0,6,0V6h3V7a3,3,0,0,0,6,0V6h3V7a3,3,0,0,0,6,0V6h3V7a3,3,0,0,0,6,0V6a1,1,0,0,1,1,1v5H44v2h2V37h2V7A3,3,0,0,0,45,4ZM7,7A1,1,0,0,1,5,7V3A1,1,0,0,1,7,3Zm9,0a1,1,0,0,1-2,0V3a1,1,0,0,1,2,0Zm9,0a1,1,0,0,1-2,0V3a1,1,0,0,1,2,0Zm9,0a1,1,0,0,1-2,0V3a1,1,0,0,1,2,0Zm9,0a1,1,0,0,1-2,0V3a1,1,0,0,1,2,0Z"/><rect x="40" y="12" width="2" height="2"/><path d="M38.168,22.445,36.465,25H34a1,1,0,0,0-.832,1.555l1.754,2.632-.892,3.57A1,1,0,0,0,35.447,33.9L39,32.118,42.553,33.9A1.008,1.008,0,0,0,43,34a1,1,0,0,0,.97-1.243l-.892-3.57,1.754-2.632A1,1,0,0,0,44,25H41.535l-1.7-2.555A1.039,1.039,0,0,0,38.168,22.445ZM41,27h1.131l-.963,1.445a1,1,0,0,0-.138.8l.472,1.89-2.055-1.028a1,1,0,0,0-.894,0L36.5,31.133l.472-1.89a1,1,0,0,0-.138-.8L35.869,27H37a1,1,0,0,0,.832-.445L39,24.8l1.168,1.752A1,1,0,0,0,41,27Z"/><path d="M9.105,36.553,8.382,38H7a1,1,0,0,0-.832,1.555l.865,1.3-.911,1.669a1,1,0,0,0,1.194,1.428L10,43.054l2.684.895A1.014,1.014,0,0,0,13,44a1,1,0,0,0,.878-1.479l-.911-1.669.865-1.3A1,1,0,0,0,13,38H11.618L10.9,36.553A1.042,1.042,0,0,0,9.105,36.553ZM11.131,40l-.163.245a1,1,0,0,0-.062,1l-.59-.2a1,1,0,0,0-.632,0l-.59.2a1,1,0,0,0-.062-1L8.869,40H9a1,1,0,0,0,.895-.553L10,39.236l.105.211A1,1,0,0,0,11,40Z"/><path d="M36.882,17.528A1,1,0,0,0,36,17H34.618L33.9,15.553a1.042,1.042,0,0,0-1.79,0L31.382,17H30a1,1,0,0,0-.832,1.555l.865,1.3-.911,1.669a1,1,0,0,0,1.194,1.428l2.684-.9,2.684.9A1.014,1.014,0,0,0,36,23a1,1,0,0,0,.878-1.479l-.911-1.669.865-1.3A1,1,0,0,0,36.882,17.528Zm-2.914,1.717a1,1,0,0,0-.062,1l-.59-.2a1,1,0,0,0-.632,0l-.59.2a1,1,0,0,0-.062-1L31.869,19H32a1,1,0,0,0,.9-.553l.1-.211.1.211A1,1,0,0,0,34,19h.131Z"/><rect x="23" y="40" width="2" height="2"/><rect x="23" y="32" width="2" height="6"/><rect x="23" y="19" width="2" height="6"/><path d="M27,33a7.975,7.975,0,0,1,7.11,4.327l1.777-.919A9.968,9.968,0,0,0,27,31Z"/><path d="M12.111,36.411l1.778.918A7.974,7.974,0,0,1,21,33V31A9.969,9.969,0,0,0,12.111,36.411Z"/><rect x="11" y="28" width="2" height="2"/><rect x="15" y="28" width="5" height="2"/><rect x="28" y="28" width="4" height="2"/><path d="M22,25a6.028,6.028,0,0,1-5.678-3.381l-1.849.761A8.035,8.035,0,0,0,22,27Z"/><path d="M26,27a8.588,8.588,0,0,0,5.912-2.277l-1.384-1.445A6.565,6.565,0,0,1,26,25Z"/><path d="M7,26a3,3,0,1,0,3,3A3,3,0,0,0,7,26Zm0,4a1,1,0,1,1,1-1A1,1,0,0,1,7,30Z"/><path d="M15,15a3,3,0,1,0,3,3A3,3,0,0,0,15,15Zm0,4a1,1,0,1,1,1-1A1,1,0,0,1,15,19Z"/><path d="M37,44a3,3,0,1,0-3-3A3,3,0,0,0,37,44Zm0-4a1,1,0,1,1-1,1A1,1,0,0,1,37,40Z"/></svg>