<?xml version="1.0" encoding="iso-8859-1"?>
<!-- Generator: Adobe Illustrator 19.0.0, SVG Export Plug-In . SVG Version: 6.00 Build 0)  -->
<svg xmlns="http://www.w3.org/2000/svg" xmlns:xlink="http://www.w3.org/1999/xlink" version="1.1" id="Layer_1" x="0px" y="0px" viewBox="0 0 511.999 511.999" style="enable-background:new 0 0 511.999 511.999;" xml:space="preserve">
<g>
	<path style="fill:#C7C5CC;" d="M357.791,65.849v88.352c0,56.22-45.576,101.796-101.796,101.796   c-56.207,0-101.784-45.576-101.784-101.796V65.849H357.791z"/>
	<path style="fill:#C7C5CC;" d="M256.001,255.999L256.001,255.999c56.219,0,101.793,45.574,101.793,101.792v88.359H154.208v-88.359   C154.208,301.573,199.782,255.999,256.001,255.999z"/>
</g>
<path style="fill:#FFDAA7;" d="M357.797,376.646v69.5H154.205v-69.5l63.689-27.225c24.338-10.405,51.877-10.405,76.215,0  L357.797,376.646z"/>
<rect x="154.207" y="415.974" style="fill:#FFC373;" width="203.588" height="30.175"/>
<path style="fill:#FFDAA7;" d="M157.992,181.67c11.99,42.871,51.315,74.328,98.003,74.328c46.699,0,86.024-31.457,98.016-74.328  H157.992z"/>
<path style="fill:#FFC373;" d="M354.006,181.666c-11.987,42.877-51.312,74.332-98.018,74.332c-46.681,0-86.006-31.455-97.993-74.332  h23.974c15.125,29.496,42.627,49.228,74.031,49.228s58.906-19.732,74.031-49.228L354.006,181.666L354.006,181.666z"/>
<rect x="240.819" y="224.559" style="fill:#FFDAA7;" width="30.354" height="134.572"/>
<rect x="132.682" y="37.552" style="fill:#896746;" width="246.648" height="28.296"/>
<g>
	<rect x="108.409" y="9.253" style="fill:#A07852;" width="295.184" height="28.296"/>
	<rect x="132.682" y="446.151" style="fill:#A07852;" width="246.648" height="28.296"/>
</g>
<rect x="108.409" y="474.446" style="fill:#896746;" width="295.184" height="28.296"/>
<path d="M357.79,107.335c5.111,0,9.253-4.142,9.253-9.253v-22.98h12.28c5.111,0,9.253-4.142,9.253-9.253V46.805h15.014  c5.111,0,9.253-4.142,9.253-9.253v-28.3c0-5.111-4.143-9.253-9.253-9.253H108.412c-5.111,0-9.253,4.142-9.253,9.253v28.299  c0,5.111,4.143,9.253,9.253,9.253h15.014v19.045c0,5.111,4.143,9.253,9.253,9.253h12.28v79.1c0,45.476,27.484,84.634,66.703,101.786  c-10.501,4.566-20.313,10.766-29.049,18.462c-3.834,3.378-4.204,9.225-0.824,13.059c3.378,3.834,9.225,4.204,13.059,0.825  c10.655-9.388,23.232-16.102,36.721-19.789v66.705c-5.896,1.377-11.692,3.257-17.313,5.66l-50.796,21.713v-4.833  c0-17.018,4.655-33.651,13.464-48.098c2.66-4.363,1.28-10.057-3.083-12.716c-4.365-2.666-10.056-1.281-12.717,3.083  c-10.578,17.351-16.169,37.313-16.169,57.732v18.836c0,0.033,0,0.066,0,0.099v60.17h-12.278c-5.111,0-9.253,4.142-9.253,9.253  v19.044h-15.014c-5.111,0-9.253,4.142-9.253,9.253v28.299c0,5.111,4.143,9.253,9.253,9.253h179.666c5.111,0,9.253-4.142,9.253-9.253  c0-5.111-4.143-9.253-9.253-9.253H117.663v-9.793h15.014h246.645h15.014v9.793h-74.01c-5.111,0-9.253,4.142-9.253,9.253  c0,5.111,4.143,9.253,9.253,9.253h83.264c5.111,0,9.253-4.142,9.253-9.253v-28.299c0-5.111-4.143-9.253-9.253-9.253h-15.014v-19.044  c0-5.111-4.143-9.253-9.253-9.253h-12.278v-60.17c0-0.032,0-0.066,0-0.099v-18.836c0-45.483-27.497-84.647-66.73-101.794  c39.233-17.148,66.727-56.314,66.727-101.795V130.16c0-5.111-4.143-9.253-9.253-9.253c-5.11,0-9.253,4.142-9.253,9.253v24.043  c0,6.236-0.641,12.321-1.822,18.215h-86.32c-5.111,0-9.253,4.142-9.253,9.253c0,5.111,4.143,9.253,9.253,9.253h80.519  c-11.073,25.493-33.292,45.056-60.481,52.51v-8.209c0-5.111-4.143-9.253-9.253-9.253c-5.111,0-9.253,4.142-9.253,9.253v120.138  c0,5.111,4.143,9.253,9.253,9.253c5.111,0,9.253-4.142,9.253-9.253v-0.996c3.404,0.977,6.758,2.159,10.039,3.561l58.069,24.823  v54.148h-185.08V382.75l58.069-24.823c3.279-1.401,6.637-2.563,10.038-3.54v0.975c0,5.111,4.143,9.253,9.253,9.253  c5.111,0,9.253-4.142,9.253-9.253V235.224c0-5.111-4.143-9.253-9.253-9.253c-5.111,0-9.253,4.142-9.253,9.253v8.216  c-27.191-7.453-49.415-27.017-60.486-52.518h54.691c5.111,0,9.253-4.142,9.253-9.253c0-5.111-4.143-9.253-9.253-9.253h-60.487  c-1.182-5.893-1.822-11.979-1.822-18.215V75.102h185.072v22.979C348.537,103.193,352.68,107.335,357.79,107.335z M297.746,340.91  c-5.619-2.402-11.418-4.273-17.313-5.652v-66.702c39.207,10.744,68.107,46.665,68.107,89.234v4.833L297.746,340.91z   M357.793,455.403h12.278v9.792H141.932v-9.792h12.278H357.793z M154.212,56.597h-12.28v-9.792h22.156  c5.111,0,9.253-4.142,9.253-9.253s-4.143-9.253-9.253-9.253h-46.423v-9.793h276.672V28.3h-198.94c-5.111,0-9.253,4.142-9.253,9.253  s4.143,9.253,9.253,9.253H370.07v9.792h-12.28H154.212z"/>
<path d="M318.551,408.907c5.111,0,9.253-4.142,9.253-9.253s-4.143-9.253-9.253-9.253h-8.787c-5.111,0-9.253,4.142-9.253,9.253  s4.143,9.253,9.253,9.253H318.551z"/>
<path d="M199.099,384.63c-5.111,0-9.253,4.142-9.253,9.253s4.143,9.253,9.253,9.253h8.787c5.111,0,9.253-4.142,9.253-9.253  s-4.143-9.253-9.253-9.253H199.099z"/>
<path d="M246.748,386.265c0,5.111,4.143,9.253,9.253,9.253h8.787c5.111,0,9.253-4.142,9.253-9.253s-4.143-9.253-9.253-9.253h-8.787  C250.89,377.012,246.748,381.154,246.748,386.265z"/>
<g>
</g>
<g>
</g>
<g>
</g>
<g>
</g>
<g>
</g>
<g>
</g>
<g>
</g>
<g>
</g>
<g>
</g>
<g>
</g>
<g>
</g>
<g>
</g>
<g>
</g>
<g>
</g>
<g>
</g>
</svg>
