<?xml version="1.0" encoding="UTF-8"?>
<!DOCTYPE svg PUBLIC "-//W3C//DTD SVG 1.1//EN" "http://www.w3.org/Graphics/SVG/1.1/DTD/svg11.dtd">
<!-- Creator: CorelDRAW -->
<svg xmlns="http://www.w3.org/2000/svg" xml:space="preserve" width="2048px" height="2048px" style="shape-rendering:geometricPrecision; text-rendering:geometricPrecision; image-rendering:optimizeQuality; fill-rule:evenodd; clip-rule:evenodd"
viewBox="0 0 2048 2048"
 xmlns:xlink="http://www.w3.org/1999/xlink">
 <defs>
  <style type="text/css">
   <![CDATA[
    .fil2 {fill:none}
    .fil1 {fill:#424242}
    .fil0 {fill:#424242;fill-rule:nonzero}
   ]]>
  </style>
 </defs>
 <g id="Layer_x0020_1">
  <metadata id="CorelCorpID_0Corel-Layer"/>
  <g id="_476537136">
   <path id="_476537496" class="fil0" d="M725.48 1207.94c0,-8.83583 -7.16457,-16.0004 -16.0004,-16.0004 -8.83583,0 -16.0004,7.16457 -16.0004,16.0004l0 576.002c0,8.83583 7.16457,16.0004 16.0004,16.0004 8.83583,0 16.0004,-7.16457 16.0004,-16.0004l0 -576.002z"/>
   <path id="_476537664" class="fil0" d="M741.48 1207.94c0,-17.6728 -14.328,-32.0008 -32.0008,-32.0008 -17.6728,0 -32.0008,14.328 -32.0008,32.0008l0 35.9374c0,17.6728 14.328,32.0008 32.0008,32.0008 17.6728,0 32.0008,-14.328 32.0008,-32.0008l0 -35.9374z"/>
   <path id="_476537544" class="fil0" d="M1239.49 585.697c12.8398,12.0803 33.0449,11.465 45.1252,-1.3748l72.8032 -77.667 0.0968505 0.00944883c8.76497,-9.35079 10.8272,-22.5697 6.38268,-33.7382l-27.6673 -84.7784 0.046063 -0.0531496c-3.88937,-11.9197 -14.113,-19.9996 -25.7256,-21.7311l-100.211 -21.2681c-17.2583,-3.65788 -34.2166,7.36654 -37.8744,24.6248 -3.65433,17.2406 54.1973,203.908 67.0241,215.977z"/>
   <path id="_476536560" class="fil0" d="M1221.59 280.818c0.483071,-17.6043 -13.3961,-32.2677 -31.0004,-32.7508 -17.6043,-0.483071 -32.2677,13.3961 -32.7508,31.0004 -1.95354,68.4945 7.66064,137.451 28.161,203.63 20.3162,65.5855 51.3508,128.573 92.439,185.811 10.285,14.2902 30.2103,17.5358 44.5004,7.25079 14.2902,-10.285 17.5358,-30.2103 7.25079,-44.5004 -36.9437,-51.4654 -64.8745,-108.183 -83.191,-167.313 -18.4866,-59.6788 -27.1607,-121.694 -25.4091,-183.129z"/>
   <path id="_476536536" class="fil1" d="M1395.29 865.674c0.318898,-2.20748 -0.114567,-5.14252 -0.419292,-7.09016l-22.9973 -146.779 0.034252 -1.75276c0.291733,-14.9421 -4.99961,-29.3965 -14.8795,-40.6099 -10.5354,-11.9575 -25.2213,-19.1221 -41.1213,-20.1307l-1.26142 -0.080315c-15.2551,0.167717 -30.4571,4.64528 -42.0402,14.8512 -11.9575,10.5354 -19.1185,25.2189 -20.1295,41.1189l-0.0755906 1.19528 0.00708662 0.200788 0.0188977 0.292914 0.0283465 0.316536 0.0330709 0.294095 0.0472441 0.337796 0.056693 0.333071 0.146457 0.770079 12.4925 85.1528 -24.0484 -0.923623c-10.2213,-0.393307 -20.4414,-0.857481 -30.6603,-1.31811 -31.076,-1.40197 -62.1969,-2.42835 -93.3083,-1.98189 -55.1126,0.791339 -139.904,6.24449 -184.112,42.9225 -20.0043,16.5969 -39.5292,36.3756 -57.9036,54.7796 -27.0898,27.1311 -53.68,54.8197 -80.0056,82.6926 -20.9811,22.213 -41.7992,44.5878 -62.4201,67.1363 -10.6689,11.6669 -21.8091,22.9666 -32.7378,34.3925 -11.2252,11.7343 -23.2016,24.0851 -33.1654,36.8906 -14.3929,18.4961 -19.0441,39.9473 -8.58662,61.3654 3.51142,7.19056 8.59135,13.6547 14.5087,19.0181 5.89961,5.34685 12.8291,9.65198 20.2973,12.4287 53.6197,19.9382 123.02,-79.7528 154.273,-112.266l34.4185 -35.8051 0 684.027c0,15.5835 6.11693,30.3414 17.1343,41.3599 11.0185,11.0173 25.7764,17.1343 41.3599,17.1343 15.5835,0 30.3414,-6.11693 41.3575,-17.1343 11.0173,-11.0185 17.1354,-25.7764 17.1354,-41.3599l0 -369.116 20.6705 0.694489c4.79882,0.16063 9.60119,0.242126 14.4036,0.242126 4.79764,0 9.59646,-0.0814961 14.3917,-0.242126l20.6705 -0.694489 0 369.116c0,15.5847 6.11811,30.3414 17.1354,41.3599 11.0173,11.0162 25.7752,17.1343 41.3587,17.1343 15.5835,0 30.3414,-6.11693 41.3575,-17.1343 10.9831,-10.9831 17.0965,-25.6819 17.1354,-41.2111 -0.0519685,-1.04291 -0.144095,-2.05394 -0.155906,-3.10984l-8.90198 -818.769 19.4126 -0.774804c24.1973,-0.96378 48.613,-0.852757 72.8457,-1.37362 14.7378,-0.316536 29.517,-0.728741 44.2323,-1.61457 9.20552,-0.555119 20.3043,-1.14803 29.2914,-3.17362 11.139,-2.50984 23.452,-6.49134 32.6433,-13.5 9.67796,-7.38071 16.2791,-17.0386 19.7528,-28.6772l0.27874 -0.934253z"/>
   <path id="_476536800" class="fil0" d="M1033.83 481.373c35.8229,0 68.2583,14.524 91.7351,38.002 23.478,23.4768 38.002,55.9122 38.002,91.7351 0,35.8217 -14.524,68.2571 -38.002,91.7351 -23.4768,23.478 -55.9122,38.002 -91.7351,38.002 -35.8229,0 -68.2583,-14.524 -91.7351,-38.002 -23.478,-23.478 -38.002,-55.9134 -38.002,-91.7351 0,-35.8229 14.524,-68.2583 38.002,-91.7351 23.4768,-23.478 55.9122,-38.002 91.7351,-38.002z"/>
  </g>
 </g>
 <rect class="fil2" width="2048" height="2048"/>
</svg>
