<?xml version="1.0" encoding="UTF-8"?>
<!DOCTYPE svg PUBLIC "-//W3C//DTD SVG 1.1//EN" "http://www.w3.org/Graphics/SVG/1.1/DTD/svg11.dtd">
<!-- Creator: CorelDRAW -->
<svg xmlns="http://www.w3.org/2000/svg" xml:space="preserve" width="2048px" height="2048px" style="shape-rendering:geometricPrecision; text-rendering:geometricPrecision; image-rendering:optimizeQuality; fill-rule:evenodd; clip-rule:evenodd"
viewBox="0 0 2048 2048"
 xmlns:xlink="http://www.w3.org/1999/xlink">
 <defs>
  <style type="text/css">
   <![CDATA[
    .fil2 {fill:none}
    .fil0 {fill:#424242}
    .fil1 {fill:#424242;fill-rule:nonzero}
   ]]>
  </style>
 </defs>
 <g id="Layer_x0020_1">
  <metadata id="CorelCorpID_0Corel-Layer"/>
  <g id="_476656976">
   <path id="_476657864" class="fil0" d="M1472.31 307.214c-26.3717,8.03268 -49.7197,24.215 -64.0288,48.0426 -14.3079,23.8252 -17.6268,52.0311 -12.2599,79.076 0.157087,0.79252 0.354331,1.57559 0.589371,2.34921 8.02796,26.3705 24.2138,49.7174 48.039,64.0241 23.8276,14.3091 52.0347,17.6315 79.082,12.2587 0.788977,-0.155906 1.56969,-0.351969 2.33858,-0.585827 26.3717,-8.03268 49.7209,-24.215 64.03,-48.0426 14.5087,-24.1583 18.8209,-52.7741 11.9941,-80.1284 -6.84804,-27.4358 -24.124,-50.7662 -48.3626,-65.3209 -23.8264,-14.3079 -52.0347,-17.6303 -79.0796,-12.2587 -0.790158,0.155906 -1.57205,0.351969 -2.34213,0.585827z"/>
   <path id="_476657840" class="fil0" d="M1451.06 623.575l-98.1674 275.481 -17.5075 -4.24725c-25.924,-6.28937 -51.5788,-14.0764 -77.3729,-20.9339 -23.5819,-6.2693 -48.8622,-12.6413 -73.1575,-15.0721 -20.8288,-2.08347 -40.0855,6.12284 -53.537,22.0406 -6.60119,7.81064 -11.3705,17.1851 -13.7091,27.1465 -2.40236,10.2307 -2.13543,20.9185 0.810237,31.0099 8.37284,28.6878 34.3571,44.1567 61.8709,51.0827 68.5323,17.2524 139.88,28.8331 209.775,39.2481 15.1925,2.26417 29.8914,3.57756 44.1922,-2.96929 30.8173,-14.1059 53.3776,-75.2953 67.206,-104.521l25.0063 -52.852 12.6012 57.0957c5.39292,24.4335 10.076,49.0229 14.1307,73.7138 6.97914,42.4914 12.0591,85.2863 15.4831,128.208 1.29213,16.1906 4.20237,28.2142 9.83623,43.2886 5.18622,13.8768 9.60001,26.289 12.5787,40.937 4.9878,24.5232 6.04016,50.6847 6.04016,75.6414l0 351.588c0,28.6996 11.8689,52.2461 39.0307,63.306 8.73662,3.55748 18.2634,5.10355 27.6756,4.96536 9.46654,-0.13937 18.991,-2.02914 27.789,-5.53347 26.837,-10.6902 43.6772,-33.3036 43.6772,-62.7378l0 -355.963c0,-30.926 4.10079,-59.6245 13.591,-89.041 5.80158,-17.9788 14.3291,-36.1902 18.8587,-54.3142 2.33032,-9.32127 3.26339,-18.2929 2.49803,-27.8929 -7.20473,-90.2635 -21.4559,-179.959 -43.4729,-267.809 -20.9563,-83.6162 -49.0701,-165.299 -84.8599,-243.742 -11.139,-24.4134 -31.3229,-43.1587 -56.4579,-52.5284 -25.0559,-9.34016 -52.728,-8.34922 -77.0528,2.76496 -14.5488,6.64843 -27.2764,16.6146 -37.1906,29.1685 -9.66142,12.235 -14.9953,28.9642 -20.165,43.4717z"/>
   <polygon id="_476657960" class="fil1" points="760.684,999.813 635.658,957.986 645.782,927.735 770.808,969.563 "/>
   <path id="_476657672" class="fil1" d="M697.938 842.622l297.249 -53.6941 -0.0106299 -0.0614174c8.69528,-1.56969 17.0197,4.20591 18.5894,12.9012 0.0838583,0.466536 0.145276,0.93189 0.187795,1.39488l50.9445 282.03 0.0614174 -0.0106299c1.56969,8.69528 -4.20591,17.0197 -12.9012,18.5894 -0.466536,0.0838583 -0.93189,0.145276 -1.39488,0.187795l-202.813 36.6355 0.0106299 0.0614174c-7.43859,1.34291 -14.6055,-2.68937 -17.504,-9.32717l-144.99 -265.119 -0.0507874 0.0283465c-4.23898,-7.75158 -1.39134,-17.4756 6.36024,-21.7146 1.99843,-1.09252 4.12796,-1.71378 6.26103,-1.90158z"/>
   <path id="_476657120" class="fil1" d="M1039.3 943.507l11.2571 62.3233c23.8394,-6.55867 44.0835,-17.6268 58.4103,-31.0335 15.5492,-14.5536 23.7201,-31.5898 20.8276,-47.6563l-0.0614174 0.0106299c-0.0696851,-0.38504 -0.122835,-0.770079 -0.164173,-1.15158 -3.31063,-15.4961 -16.748,-28.1563 -35.9646,-36.1642 -18.1441,-7.56024 -40.9784,-10.8638 -65.5689,-8.68701l11.2642 62.3587zm-1.46693 81.5375l-15.6874 2.81221 -14.2205 -78.7253 -13.9595 -77.2831c-0.337796,-1.22835 -0.53504,-2.51575 -0.569292,-3.84213 -0.022441,-0.822048 0.0212599,-1.63465 0.121654,-2.43307l0.0212599 -0.157087 0.0283465 -0.20315 0.0295276 -0.185433 0.0425197 -0.251575 0.0307087 -0.166536 0.0295276 -0.154725c0.51378,-2.57835 1.64646,-4.93465 3.2374,-6.90355l0.00472441 -0.00590552c0.147638,-0.183071 0.298819,-0.361418 0.454725,-0.537402l0.0874016 -0.0992127 0.133465 -0.146457 0.141732 -0.153543 0.114567 -0.119291 0.159449 -0.164173 0.090945 -0.090945 0.218504 -0.21378 0.022441 -0.0212599c0.915355,-0.872835 1.93819,-1.64173 3.05315,-2.28189l0.0212599 -0.011811c0.209055,-0.119291 0.420473,-0.233858 0.635434,-0.344882l0.151181 -0.0767717 0.161811 -0.080315 0.196063 -0.0933072 0.172441 -0.080315 0.253937 -0.112205 0.0696851 -0.0307087c1.53543,-0.657875 3.19725,-1.08662 4.93701,-1.23425 36.2433,-6.28819 70.9288,-2.5311 97.8379,8.68347 28.9677,12.0721 49.4906,32.8146 54.9827,59.4756 0.308268,1.05118 0.511418,2.14488 0.595276,3.2752 4.21181,26.8618 -7.77166,53.4839 -30.717,74.9587 -21.313,19.9429 -52.4693,35.6126 -88.5485,42.4052 -0.998032,0.279921 -2.0374,0.465355 -3.10394,0.546851 -8.0882,0.63189 -15.5043,-4.95355 -16.976,-13.1091l15.7453 -2.8441z"/>
   <path id="_476656736" class="fil1" d="M618.778 978.341c0.93189,8.76733 8.79568,15.1193 17.563,14.1874 8.76733,-0.93189 15.1193,-8.79568 14.1874,-17.563l-7.30512 -67.6595c-0.93189,-8.76733 -8.79568,-15.1193 -17.563,-14.1874 -8.76733,0.93189 -15.1193,8.79568 -14.1874,17.563l7.30512 67.6595z"/>
   <path id="_476657048" class="fil1" d="M580.773 938.277c8.63859,-0.392126 10.6795,-12.2622 2.52874,-15.4795 -1.02756,-0.368504 -2.03977,-0.559843 -3.13583,-0.510237l-2.15079 0.090945 -2.14252 0.105118 -2.12953 0.122835 -2.12008 0.138189 -2.11299 0.154725 -2.10118 0.170079 -2.08937 0.186614 -1.55197 0.15c-2.5937,0.236221 -4.73622,1.64882 -6.10985,3.83504 -3.37559,5.62559 1.06654,12.6886 7.59331,12.0957l1.55197 -0.15 1.96417 -0.174803 1.97362 -0.16063 1.98307 -0.145276 1.99725 -0.12874 2.00669 -0.115748 2.01732 -0.100394 2.02795 -0.0838583zm-263.847 395.629c-0.483071,7.09253 7.53662,11.2724 13.0819,6.80079 1.68307,-1.36772 2.67047,-3.36733 2.86536,-5.51103l0.211417 -2.65158 0.230315 -2.8252 0.236221 -2.81457 0.240945 -2.81221 0.244488 -2.80276 0.175984 -1.96063c0.308268,-3.3874 -1.57795,-6.62835 -4.68544,-8.01851 -5.01615,-2.2441 -10.7528,1.10551 -11.25,6.57756l-0.178347 1.9937 -0.246851 2.83347 -0.243307 2.83819 -0.238583 2.84764 -0.232677 2.85355 -0.211417 2.65158zm6.51024 -64.0418c-1.01221,8.70001 10.4847,12.528 14.8984,4.96181 0.526772,-0.948426 0.820867,-1.84843 0.970867,-2.92323l0.312992 -2.46142 0.343701 -2.65158 0.349607 -2.64331 0.354331 -2.63504 0.360236 -2.62914 0.364961 -2.62205 0.0141732 -0.103937c1.1374,-8.15552 -9.31654,-12.5386 -14.3433,-5.90315 -0.796064,1.09488 -1.30748,2.29252 -1.49528,3.6378l-0.0212599 0.146457 -0.369685 2.65748 -0.364961 2.66457 -0.359055 2.67284 -0.354331 2.6811 -0.348425 2.68937 -0.312992 2.46142zm9.98741 -63.7075c-1.29095,6.94016 6.30237,12.0425 12.2256,8.20985 1.82244,-1.23307 3.0815,-3.00945 3.4878,-5.19331l0.211417 -1.11142 0.473622 -2.45079 0.480709 -2.44134 0.486615 -2.43543 0.491339 -2.42481 0.496063 -2.41299 0.475985 -2.27008c0.732284,-3.49725 -0.896457,-6.95315 -4.01103,-8.68347 -4.69961,-2.54055 -10.5496,0.145276 -11.6457,5.38347l-0.485433 2.31732 -0.507874 2.46496 -0.500788 2.47205 -0.493701 2.47795 -0.490158 2.48858 -0.483071 2.49803 -0.211417 1.11142zm14.7095 -62.9764c-0.676772,2.36693 -0.199606,5.00197 1.28858,6.96733 3.97559,5.30197 12.2882,3.75355 14.1059,-2.60906l0.0649607 -0.232677 0.629528 -2.20984 0.636615 -2.19921 0.64252 -2.18977 0.648426 -2.17914 0.655512 -2.17087 0.660237 -2.15788 0.5563 -1.78937c0.930709,-3.00827 0.0318898,-6.32245 -2.35276,-8.39883 -4.36181,-3.79843 -11.2087,-1.90276 -12.9189,3.62244l-0.575197 1.85079 -0.679134 2.22166 -0.672048 2.22756 -0.667323 2.24055 -0.659056 2.24882 -0.65315 2.25827 -0.646063 2.26654 -0.0649607 0.232677zm21.3095 -61.3796c-1.3252,3.11693 -0.552756,6.69567 1.92166,9.00473 4.03583,3.76772 10.6465,2.3315 12.7996,-2.73544l0.298819 -0.708662 0.818505 -1.90866 0.826772 -1.9004 0.831497 -1.88858 0.838583 -1.87559 0.846851 -1.86614 0.851575 -1.85315 0.861024 -1.84488 0.216142 -0.455906c0.791339,-1.66536 0.951969,-3.35079 0.592914,-5.14607 -1.67126,-7.43032 -11.6965,-8.59607 -15.0402,-1.73268l-0.251575 0.533859 -0.896457 1.92047 -0.889371 1.93347 -0.879922 1.94173 -0.874016 1.95591 -0.864568 1.96181 -0.857481 1.97126 -0.851575 1.98425 -0.298819 0.708662zm30.6496 -57.7914c-1.87087,2.8063 -1.79882,6.37678 0.141732,9.12638 3.31418,4.5567 9.94017,4.40433 13.1433,-0.209055l0.740552 -1.11142 1.04528 -1.54725 1.05118 -1.53071 1.06063 -1.52362 1.06417 -1.50827 1.0748 -1.49528 1.08307 -1.48819 1.08898 -1.47402 0.764174 -1.01929c5.15197,-6.93544 -2.70827,-16.0181 -10.3831,-11.7543 -0.955513,0.557481 -1.70433,1.22835 -2.37992,2.10473l-0.83504 1.11378 -1.15748 1.56614 -1.14685 1.57559 -1.14095 1.58977 -1.13268 1.60276 -1.12205 1.61102 -1.11496 1.6252 -1.10433 1.63465 -0.740552 1.11142zm43.1244 -49.8437c-6.06851,5.33268 -1.34764,15.2764 6.66615,13.9087 1.46221,-0.292914 2.71654,-0.853938 3.84095,-1.84252l0.145276 -0.127559 1.3063 -1.12677 1.31221 -1.11378 1.32165 -1.10079 1.3311 -1.09016 1.33819 -1.07599 1.34528 -1.06181 1.35473 -1.05118 1.36417 -1.03819 1.14213 -0.853938c2.05276,-1.5248 3.23977,-3.89055 3.23977,-6.44528 0,-6.54331 -7.51418,-10.311 -12.7595,-6.41457l-1.26024 0.941339 -1.4752 1.12323 -1.46575 1.13622 -1.45866 1.15158 -1.44685 1.16575 -1.4374 1.1752 -1.42795 1.19055 -1.42087 1.20354 -1.41024 1.2189 -0.145276 0.127559zm56.3126 -35.0327c-8.10237,3.4441 -5.67874,15.4028 3.15355,15.4028 1.01693,-0.0248032 1.98189,-0.210236 2.92441,-0.601182l0.598819 -0.249213 1.62047 -0.656693 1.62756 -0.64252 1.63819 -0.629528 1.64764 -0.615355 1.65473 -0.602363 1.6689 -0.587008 1.67717 -0.576378 1.68425 -0.559843 0.574016 -0.185433c7.02993,-2.17559 7.53544,-12.1134 0.69567,-14.9929 -1.75748,-0.759449 -3.71339,-0.822048 -5.53583,-0.257481l-0.713386 0.230315 -1.82599 0.607087 -1.81181 0.62126 -1.80354 0.636615 -1.79646 0.651969 -1.78465 0.667323 -1.7752 0.681497 -1.76457 0.696851 -1.75512 0.711024 -0.598819 0.249213z"/>
   <path id="_476657024" class="fil1" d="M581.383 970.23c2.97402,-0.346063 5.44843,-2.27244 6.54567,-5.05158 2.16142,-5.62087 -2.38937,-11.524 -8.37166,-10.8437l-1.67717 0.198425 -1.6689 0.206693 -1.66063 0.216142 -1.65473 0.22441 -1.64528 0.23504 -1.63819 0.243307 -1.63583 0.253937 -1.62284 0.263386 -1.61457 0.271654 -1.45158 0.253937c-8.70237,1.61929 -8.85473,13.8366 -0.279921,15.7193 1.02165,0.204331 1.95473,0.218504 2.98465,0.0507874l1.45158 -0.253937 1.51772 -0.255118 1.52362 -0.246851 1.52953 -0.237402 1.54134 -0.229134 1.54843 -0.220866 1.55788 -0.212599 1.56614 -0.204331 1.57441 -0.194882 1.58032 -0.186614zm-181.781 422.227c0.941339,2.41299 2.96575,4.24843 5.48741,4.87914 6.27638,1.60984 11.7957,-4.60394 9.44646,-10.624l-0.0661418 -0.172441 -0.223229 -0.581103 -0.222047 -0.581103 -0.220866 -0.583465 -0.222047 -0.587008 -0.218504 -0.577559 -0.218504 -0.583465 -0.218504 -0.582284 -0.21378 -0.577559 -0.217323 -0.588189 -0.21378 -0.582284 -0.212599 -0.578741 -0.211417 -0.579922 -0.210236 -0.579922 -0.212599 -0.588189 -0.209055 -0.578741 -0.204331 -0.572835 -0.207874 -0.585827 -0.207874 -0.585827 -0.201969 -0.574016 -0.201969 -0.576378 -0.204331 -0.585827 -0.200788 -0.581103 -0.199606 -0.577559 -0.199606 -0.581103 -0.199606 -0.583465 -0.011811 -0.0330709c-0.881103,-2.58189 -2.97166,-4.50827 -5.61142,-5.18504 -6.16654,-1.54134 -11.5441,4.31339 -9.53977,10.3276l0.0212599 0.0637796 0.204331 0.597638 0.206693 0.602363 0.209055 0.605906 0.210236 0.602363 0.209055 0.6 0.211417 0.607087 0.216142 0.609449 0.212599 0.6 0.212599 0.597638 0.218504 0.612993 0.218504 0.604725 0.214961 0.597638 0.219685 0.605906 0.220866 0.605906 0.222047 0.607087 0.223229 0.603544 0.222047 0.6 0.225591 0.608268 0.225591 0.603544 0.225591 0.604725 0.230315 0.61063 0.226772 0.598819 0.230315 0.604725 0.231496 0.607087 0.232677 0.607087 0.0661418 0.172441zm-18.4028 -62.6481c0.668504,3.19252 3,5.55355 6.17953,6.2693 5.68819,1.1374 10.5744,-3.68622 9.51497,-9.38268l-0.0933072 -0.474804 -0.113386 -0.569292 -0.109843 -0.562205 -0.109843 -0.563386 -0.109843 -0.570473 -0.10748 -0.561024 -0.105118 -0.552756 -0.105118 -0.569292 -0.105118 -0.562205 -0.102756 -0.561024 -0.101575 -0.558662 -0.100394 -0.559843 -0.101575 -0.568111 -0.0980316 -0.552756 -0.0956694 -0.559843 -0.0980316 -0.565748 -0.0956694 -0.558662 -0.0956694 -0.56693 -0.0944883 -0.557481 -0.090945 -0.550394 -0.090945 -0.557481 -0.0897638 -0.565748 -0.0897638 -0.557481 -0.0874016 -0.557481 -0.0874016 -0.553937 -0.0850394 -0.558662 -0.0862205 -0.563386 -0.0496063 -0.328347c-1.32402,-8.13544 -12.3732,-9.30473 -15.3839,-1.67835 -0.501969,1.36299 -0.641339,2.61142 -0.440552,4.05l0.0543308 0.361418 0.0885827 0.577559 0.0897638 0.587008 0.0921261 0.589371 0.0921261 0.585827 0.0944883 0.588189 0.0944883 0.579922 0.0956694 0.588189 0.0980316 0.597638 0.0992127 0.588189 0.0980316 0.581103 0.100394 0.589371 0.100394 0.582284 0.102756 0.588189 0.105118 0.597638 0.103937 0.582284 0.105118 0.590552 0.108662 0.591733 0.10748 0.589371 0.109843 0.590552 0.109843 0.583465 0.112205 0.6 0.114567 0.591733 0.112205 0.582284 0.114567 0.591733 0.116929 0.592914 0.115748 0.585827 0.0933072 0.474804zm-6.22087 -65.2949c-0.0661418,2.93268 1.49291,5.61615 4.01457,7.08662 5.29134,3.02362 11.8441,-0.714567 11.9823,-6.79134l0.00708662 -0.416929 0.0106299 -0.536221 0.0106299 -0.525591 0.011811 -0.517323 0.0141732 -0.532678 0.0141732 -0.52441 0.0153543 -0.52441 0.0165354 -0.526772 0.0649607 -1.94764 0.0696851 -1.93819 0.0744095 -1.93347 0.0791339 -1.93465 0.0814961 -1.92284 0.0874016 -1.91811 0.00354331 -0.0496063c0.376772,-8.2878 -10.585,-11.6209 -14.8831,-4.4563 -0.659056,1.12913 -1.04055,2.37047 -1.09961,3.67914l-0.00354331 0.080315 -0.0897638 1.95827 -0.0838583 1.96536 -0.0791339 1.96536 -0.0767717 1.97362 -0.0696851 1.97835 -0.0673229 1.98071 -0.0165354 0.557481 -0.0177165 0.559843 -0.0141732 0.559843 -0.0141732 0.551575 -0.0141732 0.569292 -0.0106299 0.561024 -0.0106299 0.552756 -0.00708662 0.416929zm4.40315 -64.6075c-0.878741,7.72796 8.65749,12.0898 13.989,6.16654 1.0689,-1.27441 1.71142,-2.66221 1.90394,-4.32166l0.0814961 -0.711024 0.209055 -1.7752 0.21378 -1.77047 0.217323 -1.76457 0.222047 -1.75512 0.229134 -1.75394 0.231496 -1.74803 0.237402 -1.73858 0.242126 -1.73858 0.127559 -0.896457c1.14567,-8.21221 -9.43229,-12.6579 -14.5075,-5.67993 -0.699213,1.03347 -1.1563,2.16142 -1.32874,3.4004l-0.134646 0.946064 -0.249213 1.7811 -0.244488 1.79291 -0.238583 1.79528 -0.233858 1.80118 -0.229134 1.80945 -0.22441 1.81181 -0.218504 1.81536 -0.21378 1.82244 -0.0814961 0.711024zm11.2536 -63.9981c-1.82126,7.82953 7.39607,13.2154 13.3713,7.63819 1.09606,-1.09606 1.76575,-2.28307 2.15788,-3.78071l0.132284 -0.539764 0.389764 -1.55551 0.394488 -1.55079 0.400394 -1.54134 0.4063 -1.5378 0.411024 -1.53425 0.414567 -1.52362 0.420473 -1.51654 0.427559 -1.51417 0.429922 -1.50473 0.236221 -0.809056c0.948426,-3.32008 -0.253937,-6.80788 -3.08032,-8.80276 -4.43859,-3.13347 -10.7764,-0.936615 -12.2717,4.29803l-0.255118 0.872835 -0.451181 1.57323 -0.444095 1.57795 -0.43937 1.58504 -0.433465 1.58977 -0.427559 1.59331 -0.422835 1.60158 -0.416929 1.60984 -0.411024 1.61221 -0.4063 1.61929 -0.132284 0.539764zm21.4099 -61.8579c-3.49843,7.77402 5.63741,14.85 12.2634,9.62953 0.986221,-0.826772 1.67008,-1.6689 2.22402,-2.83583l0.0625985 -0.135827 0.607087 -1.28622 0.614174 -1.28032 0.618898 -1.27441 0.625985 -1.26732 0.630709 -1.26142 0.634252 -1.25079 0.641339 -1.24488 0.649607 -1.24252 0.651969 -1.23307 0.656693 -1.22126 0.61063 -1.11969c3.76536,-6.81378 -3.57284,-14.5158 -10.637,-10.9831 -1.47992,0.780709 -2.58307,1.82244 -3.39213,3.28701l-0.65315 1.19764 -0.703938 1.31102 -0.696851 1.31575 -0.687402 1.31811 -0.686221 1.32992 -0.679134 1.33819 -0.670867 1.34173 -0.66378 1.34764 -0.659056 1.35473 -0.651969 1.36063 -0.647245 1.3689 -0.0625985 0.135827zm36.026 -55.4599c-2.51929,2.86772 -2.79095,6.99922 -0.512599,10.0973 3.00236,4.08307 8.98583,4.37835 12.385,0.627166l0.506693 -0.564567 0.87756 -0.96378 0.879922 -0.955513 0.885827 -0.946064 0.891733 -0.938977 0.896457 -0.929528 0.905906 -0.925985 0.911812 -0.920079 0.912993 -0.907087 0.923623 -0.901182 0.933072 -0.89882 0.933072 -0.887009 0.218504 -0.204331c2.16614,-2.03032 3.02953,-4.97363 2.30906,-7.85434 -1.46221,-5.84646 -8.80394,-7.99016 -13.1917,-3.87638l-0.308268 0.28937 -1.02284 0.972048 -1.01102 0.97441 -1.00866 0.986221 -1.00512 0.996851 -0.992127 1.00039 -0.986221 1.0063 -0.981497 1.01929 -0.972048 1.02402 -0.966142 1.03347 -0.957875 1.03819 -0.948426 1.0441 -0.506693 0.564567zm52.3985 -40.924c-2.93504,1.50473 -4.57796,4.67126 -4.25906,7.93465 0.672048,5.64095 6.59764,8.84764 11.6575,6.25276l0.548032 -0.288189 1.17756 -0.608268 1.19291 -0.603544 1.19646 -0.596457 1.20118 -0.585827 1.21181 -0.579922 1.21536 -0.571654 1.2248 -0.563386 1.23543 -0.557481 1.23543 -0.546851 1.24725 -0.539764 1.18228 -0.50315c7.54016,-3.20433 5.96339,-14.3303 -2.16969,-15.3225 -1.41851,-0.138189 -2.71418,0.011811 -4.03347,0.572835l-1.28858 0.548032 -1.35591 0.587008 -1.35118 0.598819 -1.33701 0.604725 -1.33347 0.612993 -1.32874 0.623623 -1.31811 0.63189 -1.31221 0.640158 -1.30276 0.648426 -1.29449 0.655512 -1.29331 0.667323 -0.548032 0.288189z"/>
   <path id="_476656928" class="fil1" d="M581.409 1002.23c7.9689,-0.927166 9.73583,-11.8465 2.37756,-15.2268 -1.33937,-0.615355 -2.79095,-0.830316 -4.25552,-0.66378l-1.77874 0.217323 -1.76575 0.226772 -1.75748 0.239764 -1.74213 0.249213 -1.73032 0.261024 -1.72441 0.272835 -1.70551 0.283465 -1.69843 0.292914 -1.68662 0.307087 -0.741733 0.13937c-7.65119,1.42323 -8.95631,11.8866 -1.86614,15.1441 1.56024,0.67441 3.09685,0.901182 4.77874,0.588189l0.741733 -0.13937 1.56614 -0.283465 1.58032 -0.274016 1.59449 -0.264567 1.60158 -0.253937 1.61693 -0.242126 1.6311 -0.23504 1.64173 -0.223229 1.65473 -0.212599 1.66772 -0.20315zm-124.78 317.633c2.2689,8.66221 14.6705,7.79764 15.7288,-1.09134 0.0933072,-0.959056 0.0259843,-1.8 -0.19252,-2.7378l-0.282284 -1.14331 -0.537402 -2.18858 -0.531496 -2.18386 -0.52441 -2.17559 -0.518504 -2.16969 -0.510237 -2.16614 -0.506693 -2.15906 -0.28937 -1.25197c-1.77638,-7.63819 -12.3673,-8.41654 -15.2469,-1.12205 -0.575197,1.56024 -0.725197,3.08032 -0.346063,4.71024l0.298819 1.29213 0.51378 2.19449 0.519685 2.19685 0.525591 2.20748 0.533859 2.21103 0.538583 2.21457 0.544489 2.21929 0.282284 1.14331zm-13.4043 -63.1489c1.61693,8.6882 13.8343,8.85591 15.7193,0.26811 0.204331,-1.02284 0.216142,-1.95473 0.0484252,-2.98465l-0.0236221 -0.135827 -0.34252 -2.01024 -0.336614 -2.00551 -0.329528 -1.99843 -0.322441 -1.9937 -0.316536 -1.98543 -0.308268 -1.97717 -0.301181 -1.97244 -0.227953 -1.52953c-0.3,-1.84488 -1.06299,-3.33544 -2.40945,-4.63583 -5.56063,-5.18977 -14.4697,-0.552756 -13.4197,6.97441l0.237402 1.5815 0.308268 2.01969 0.315355 2.02914 0.323622 2.03268 0.329528 2.03622 0.336614 2.04331 0.343701 2.0504 0.351969 2.05748 0.0236221 0.135827zm-7.72087 -64.4044c0.570473,8.36812 11.8677,10.4492 15.3508,2.66457 0.497244,-1.1811 0.680315,-2.31732 0.622441,-3.59764l-0.0212599 -0.349607 -0.0992127 -1.78583 -0.0944883 -1.77756 -0.0850394 -1.77047 -0.0767717 -1.76457 -0.0696851 -1.75748 -0.0625985 -1.74803 -0.0531496 -1.73977 -0.0472441 -1.73504 -0.0283465 -1.25197c-0.0791339,-3.48662 -2.3504,-6.47363 -5.67874,-7.49764 -5.19213,-1.55788 -10.4421,2.38701 -10.3181,7.8189l0.0307087 1.32047 0.0472441 1.80354 0.0555119 1.81299 0.0649607 1.8189 0.0720473 1.82362 0.0814961 1.83071 0.0874016 1.83898 0.0968505 1.8437 0.103937 1.84961 0.0212599 0.349607zm1.77165 -65.4142c-0.418111,2.9941 0.916536,5.90906 3.37205,7.64174 4.97599,3.36614 11.6563,0.432284 12.4854,-5.51339l0.0696851 -0.531496 0.205512 -1.49528 0.212599 -1.48347 0.220866 -1.4752 0.230315 -1.46811 0.237402 -1.45866 0.246851 -1.45394 0.255118 -1.44213 0.262205 -1.4315 0.271654 -1.42677 0.279921 -1.41851 0.0271654 -0.129921c0.649607,-3.10158 -0.571654,-6.1689 -3.08268,-8.07166 -4.71378,-3.42756 -11.3835,-0.911812 -12.5811,4.80945l-0.0484252 0.236221 -0.301181 1.5248 -0.292914 1.53307 -0.283465 1.54252 -0.271654 1.54843 -0.263386 1.55079 -0.256299 1.5626 -0.244488 1.56969 -0.237402 1.57677 -0.226772 1.58504 -0.217323 1.5874 -0.0696851 0.531496zm18.9189 -63.7359c-3.74055,7.29449 4.36181,14.8146 11.3941,10.4705 1.20591,-0.79252 2.07284,-1.73268 2.75551,-3.00118l0.486615 -0.933072 0.591733 -1.10906 0.6 -1.09843 0.609449 -1.09134 0.618898 -1.08189 0.625985 -1.07244 0.636615 -1.06536 0.643701 -1.05354 0.654331 -1.04528 0.666142 -1.04173 0.670867 -1.02992 0.681497 -1.02047 0.199606 -0.292914c1.48583,-2.13898 1.80709,-4.83898 0.929528,-7.28386 -2.24646,-6.09804 -10.3984,-7.1315 -14.1012,-1.79882l-0.291733 0.427559 -0.77126 1.15512 -0.760631 1.16457 -0.746457 1.16929 -0.739371 1.18228 -0.728741 1.19291 -0.71693 1.2 -0.7063 1.20709 -0.694489 1.21654 -0.68504 1.22599 -0.673229 1.23307 -0.662599 1.24134 -0.486615 0.933072zm44.8052 -50.2583c-2.98465,1.93583 -4.32992,5.60906 -3.30709,9.01772 1.53071,5.10119 7.55552,7.29922 12.0189,4.40433l1.07953 -0.709843 1.06417 -0.682678 1.07835 -0.676772 1.08307 -0.66378 1.09961 -0.659056 1.10551 -0.647245 1.12087 -0.638977 1.1315 -0.633071 1.1374 -0.618898 1.15276 -0.612993 1.16457 -0.605906 0.839764 -0.425197c6.90473,-3.54095 5.38347,-13.7079 -2.30551,-15.0532 -1.72441,-0.258662 -3.27874,-0.022441 -4.84961,0.742914l-0.988583 0.500788 -1.30394 0.676772 -1.29213 0.686221 -1.28622 0.701575 -1.2685 0.708662 -1.26024 0.719292 -1.24961 0.732284 -1.23662 0.739371 -1.22953 0.753544 -1.21299 0.761812 -1.20591 0.772442 -1.07953 0.709843z"/>
   <path id="_476657096" class="fil1" d="M452.972 1546.91c-2.69173,-8.38701 -11.6752,-13.0051 -20.0622,-10.3134 -8.38701,2.69173 -13.0051,11.6752 -10.3134,20.0622 8.51694,26.4437 2.66457,57.9957 -2.79449,87.43 -6.24804,33.6898 -12.0532,64.9938 1.29567,91.0229 4.00276,7.83544 13.6016,10.9406 21.437,6.9378 7.83544,-4.00276 10.9406,-13.6016 6.9378,-21.437 -8.3882,-16.3547 -3.52677,-42.5658 1.70433,-70.7741 6.16418,-33.2327 12.7713,-68.8512 1.79528,-102.928z"/>
   <path id="_476657192" class="fil1" d="M441.332 1561.78c-19.3677,4.15394 -39.5398,4.0689 -58.9878,-0.424016 -19.2095,-4.4374 -37.7457,-13.1539 -54.1512,-26.3055 -16.3453,-13.102 -28.8614,-29.2855 -37.3796,-47.0894 -8.82757,-18.4453 -13.3122,-38.589 -13.278,-58.8l15.9378 0 -15.9992 -0.0271654c0.0129921,-8.08111 6.0189,-14.752 13.8036,-15.8209 19.3677,-4.15394 39.5398,-4.0689 58.9878,0.424016 19.2095,4.4374 37.7457,13.1539 54.1512,26.3055 16.3453,13.102 28.8614,29.2855 37.3796,47.0894 8.82757,18.4453 13.3122,38.589 13.278,58.8l-15.9378 0 15.9992 0.0271654c-0.0129921,8.08111 -6.0189,14.752 -13.8036,15.8209z"/>
   <path id="_476656784" class="fil1" d="M476.124 1562.49c-12.8906,2.97756 -26.2654,3.06614 -39.13,0.379134 -7.81064,-1.04764 -13.8413,-7.72914 -13.8543,-15.828l15.9992 -0.0271654 -15.9378 0c-0.022441,-13.5638 2.98937,-27.0898 8.91851,-39.4796 5.72953,-11.9728 14.1343,-22.8473 25.0984,-31.6359 11.0256,-8.84056 23.4862,-14.6976 36.3969,-17.6811 12.8906,-2.97756 26.2654,-3.06614 39.13,-0.379134 7.81064,1.04764 13.8413,7.72914 13.8543,15.828l-15.9992 0.0271654 15.9378 0c0.022441,13.5638 -2.98937,27.0898 -8.91851,39.4796 -5.72953,11.9728 -14.1343,22.8473 -25.0984,31.6359 -11.0256,8.84056 -23.4862,14.6976 -36.3969,17.6811z"/>
  </g>
 </g>
 <rect class="fil2" width="2048" height="2048"/>
</svg>
