<?xml version="1.0" encoding="UTF-8"?>
<!DOCTYPE svg PUBLIC "-//W3C//DTD SVG 1.1//EN" "http://www.w3.org/Graphics/SVG/1.1/DTD/svg11.dtd">
<!-- Creator: CorelDRAW -->
<svg xmlns="http://www.w3.org/2000/svg" xml:space="preserve" width="2048px" height="2048px" style="shape-rendering:geometricPrecision; text-rendering:geometricPrecision; image-rendering:optimizeQuality; fill-rule:evenodd; clip-rule:evenodd"
viewBox="0 0 2048 2048"
 xmlns:xlink="http://www.w3.org/1999/xlink">
 <defs>
  <style type="text/css">
   <![CDATA[
    .fil2 {fill:none}
    .fil1 {fill:#424242}
    .fil0 {fill:#424242;fill-rule:nonzero}
   ]]>
  </style>
 </defs>
 <g id="Layer_x0020_1">
  <metadata id="CorelCorpID_0Corel-Layer"/>
  <g id="_476654840">
   <path id="_476655176" class="fil0" d="M864.147 256.001c36.4902,0 69.5315,14.7933 93.4489,38.7107 23.9162,23.9173 38.7107,56.9575 38.7107,93.4489 0,36.4902 -14.7945,69.5304 -38.7107,93.4477 -23.9173,23.9173 -56.9587,38.7107 -93.4489,38.7107 -36.4914,0 -69.5315,-14.7945 -93.4489,-38.7107 -23.9173,-23.9173 -38.7118,-56.9575 -38.7118,-93.4477 0,-36.4914 14.7957,-69.5327 38.7118,-93.4477 23.9173,-23.9173 56.9575,-38.7118 93.4489,-38.7118z"/>
   <path id="_476654624" class="fil1" d="M987.048 985.846c0.427559,0.465355 0.890552,0.915355 1.31693,1.32992 9.51142,9.24568 20.8654,17.9847 33.0827,23.3221 11.9776,5.23229 25.0571,6.75237 38.0114,5.70119l227.581 -18.4689c32.8713,-2.66811 57.528,-20.6587 67.304,-52.2496 3.15591,-10.2024 4.33347,-21.0532 3.48071,-31.6973 -0.8563,-10.6807 -3.72756,-21.2551 -8.48741,-30.8587 -14.6551,-29.5618 -41.7886,-43.5237 -74.6268,-40.8579l-188.326 15.2847 -178.544 -243.431c-14.5181,-19.7941 -32.5193,-40.5189 -55.7162,-50.1473 -20.6221,-8.55946 -43.5662,-10.7362 -65.5075,-6.80788 -22.0004,3.9378 -42.7016,13.9701 -59.0162,29.3079 -18.8291,17.6988 -30.1559,40.4965 -34.0925,65.9575l-0.0437008 0.294095c-0.0838583,0.778347 -0.161811,1.54606 -0.28937,2.3315l-1.90866 11.8748 -0.996851 6.45827 -0.0401575 -0.00708662 -85.6938 533.119c-0.00944883,0.277559 -0.0106299,0.553937 -0.00708662,0.830316 0.401575,30.4063 12.1453,59.3174 33.6839,80.8571 21.8917,21.8906 52.2107,31.7197 82.5768,33.7323l21.0792 1.39725c91.5107,6.06615 183.163,11.9752 274.517,20.0528l10.3476 0.914174 220.477 349.812c10.2591,16.2791 23.4449,35.4366 41.6315,43.4729 18.9213,8.36221 40.3181,8.78741 59.5985,1.3252 19.3807,-7.49882 34.8414,-22.1882 43.2437,-41.2004 8.0882,-18.2953 8.74843,-38.9114 2.03504,-57.6851l-2.0374 -5.09174c-22.5449,-50.276 -45.1536,-100.191 -70.4008,-149.215 -27.5032,-53.4071 -56.5713,-107.554 -88.3182,-158.557 -7.89449,-12.685 -14.5382,-26.3351 -21.1429,-39.7288 -12.9059,-26.1721 -29.7567,-62.3504 -54.3355,-79.3182 -9.31654,-6.43111 -19.3819,-9.96969 -30.6496,-10.9984l-290.191 -26.5252 56.9032 -312.013 93.502 127.484z"/>
   <path id="_476654984" class="fil0" d="M428.535 1754.71c-2.09646,18.3756 11.0988,34.976 29.4744,37.0725 18.3768,2.09646 34.976,-11.0988 37.0725,-29.4744l40.2248 -205.011 202.622 0 40.2248 205.011c2.09646,18.3756 18.6969,31.5709 37.0725,29.4744 18.3756,-2.09646 31.5721,-18.6969 29.4744,-37.0725l-43.5083 -372.212c-1.11496,-17.511 -15.6709,-31.3736 -33.4654,-31.3736l-262.218 0c-16.7965,-0.0200788 -31.311,12.5563 -33.3083,29.6421l0.0354331 0.0956694 -43.7008 373.848z"/>
   <path id="_476654960" class="fil0" d="M1373.42 604.192l86.5761 125.759 0.0484252 -0.0401575c5.89016,7.14449 4.87441,17.7142 -2.27008,23.6043 -2.39528,1.97599 -5.17559,3.17244 -8.03505,3.62481l-233.961 57.3166 0.0141732 0.0543308c-7.64056,1.87205 -15.3425,-1.82008 -18.8374,-8.48977l-70.5367 -116.773 -0.0413386 0.0259843c-4.93583,-7.83426 -2.58544,-18.1878 5.24882,-23.1236 1.99016,-1.25433 4.14213,-2.03622 6.32835,-2.37992l217.668 -66.3284 -0.0141732 -0.0531496c6.96733,-1.70315 13.9831,1.2189 17.8122,6.80315z"/>
   <path id="_476654912" class="fil0" d="M1449.71 725.333l156.388 43.3713c5.70827,1.11024 10.6795,5.16142 12.6874,11.061 2.98229,8.76497 -1.70433,18.2929 -10.4705,21.2752l-5.40355 -15.8728 5.37166 15.8504 -263.987 89.8642c-4.69252,1.91693 -10.1953,1.6937 -14.8937,-1.08662l0.0153543 -0.0259843 -124.044 -73.4103c-4.09961,-2.11181 -7.31575,-5.89725 -8.56064,-10.7114 -2.31732,-8.96575 3.07323,-18.1134 12.039,-20.4307l0.0129921 0.0543308 230.877 -59.6693c3.10984,-1.08307 6.5693,-1.26614 9.98268,-0.318898l-0.0141732 0.0496063z"/>
  </g>
 </g>
 <rect class="fil2" width="2048" height="2048"/>
</svg>
