<?xml version="1.0" encoding="UTF-8"?>
<!DOCTYPE svg PUBLIC "-//W3C//DTD SVG 1.1//EN" "http://www.w3.org/Graphics/SVG/1.1/DTD/svg11.dtd">
<!-- Creator: CorelDRAW -->
<svg xmlns="http://www.w3.org/2000/svg" xml:space="preserve" width="2048px" height="2048px" style="shape-rendering:geometricPrecision; text-rendering:geometricPrecision; image-rendering:optimizeQuality; fill-rule:evenodd; clip-rule:evenodd"
viewBox="0 0 2048 2048"
 xmlns:xlink="http://www.w3.org/1999/xlink">
 <defs>
  <style type="text/css">
   <![CDATA[
    .fil2 {fill:none}
    .fil0 {fill:#424242}
    .fil1 {fill:#424242;fill-rule:nonzero}
   ]]>
  </style>
 </defs>
 <g id="Layer_x0020_1">
  <metadata id="CorelCorpID_0Corel-Layer"/>
  <path class="fil0" d="M682.674 908.668l-0.145276 -0.0968505c-14.6622,46.7209 -16.8378,131.091 -22.552,182.091 -1.82244,16.2709 2.99173,32.5051 13.2201,45.2658 10.2484,12.789 24.9768,20.8902 41.2701,22.6855 16.2803,1.7941 32.5335,-2.97874 45.3048,-13.2154 12.8008,-10.2591 20.863,-25.0122 22.689,-41.3079l16.7268 -149.294 62.315 -63.5859 -0.879922 51.6615c-0.640158,37.5307 -1.22717,75.0638 -1.48819,112.599 -1.56496,223.754 -46.9311,439.933 -84.8788,661.693 -0.0318898,0.227953 -0.0637796,0.455906 -0.0980316,0.681497 -5.10945,33.1819 13.5213,64.1752 46.9052,71.68 50.0741,11.2618 68.9221,-26.276 77.9882,-66.3213l0.122835 0.0259843 88.878 -384.103 80.3552 91.6052 -42.9307 290.713c-4.95473,33.5528 18.5634,64.9997 52.0902,69.9024 33.6425,4.9193 64.9725,-18.5103 69.9355,-52.1138 8.56064,-57.9662 55.0607,-293.541 45.952,-337.014 -1.69961,-8.113 -4.95473,-15.7831 -9.68859,-22.5933l-128.528 -184.901 11.0209 -309.248 104.205 84.0001c12.5469,10.1138 27.9898,18.8103 44.5406,18.8103 16.4492,0 32.0303,-6.45709 43.663,-18.0898 11.6327,-11.6339 18.0886,-27.2126 18.0886,-43.663 0,-16.4492 -6.45709,-32.0303 -18.0898,-43.663l-209.1 -209.103c-26.2252,-26.2264 -52.9737,-38.6315 -93.3308,-32.6339 -25.9949,3.86339 -48.5197,18.8587 -66.7111,37.2685 -59.4827,60.1359 -171.53,159.626 -206.85,230.263z"/>
  <path class="fil1" d="M1078.55 352.581c12.4772,13.3004 22.5284,28.8272 29.4544,45.8823 7.05001,17.361 10.9358,36.2776 10.9358,56.0245 0,41.1744 -16.6925,78.4536 -43.6796,105.439 -26.987,26.987 -64.2674,43.6796 -105.441,43.6796 -41.1721,0 -78.4512,-16.6925 -105.438,-43.6796 -26.9858,-26.9858 -43.6784,-64.2662 -43.6784,-105.439 0,-19.6854 3.86575,-38.5595 10.8839,-55.8993 7.20827,-17.8146 17.8595,-33.9922 31.1492,-47.7367l-0.0637796 -0.0614174c7.90985,-8.17205 19.1221,-11.2205 29.4945,-9.08032 25.7729,3.4689 51.6485,5.2004 77.4048,5.17205 26.2984,-0.0307087 52.9737,-1.9063 79.7977,-5.6504l-0.0106299 -0.0732284c11.4614,-1.60039 22.3524,3.08386 29.191,11.4224zm-29.7969 69.8823c-2.26772,-5.58426 -5.0941,-10.8614 -8.40473,-15.7571 -23.4083,2.5937 -47.0457,3.9 -70.7764,3.92717 -23.7248,0.0259843 -47.2347,-1.22953 -70.3985,-3.75355 -3.27638,4.87559 -6.08032,10.135 -8.33505,15.7087 -3.95551,9.77127 -6.13347,20.537 -6.13347,31.8992 0,23.5075 9.52678,44.7886 24.9272,60.189 15.4004,15.4004 36.6815,24.9284 60.1878,24.9284 23.5075,0 44.7898,-9.52796 60.1902,-24.9284 15.4016,-15.4004 24.9284,-36.6815 24.9284,-60.189 0,-11.3976 -2.19803,-22.2059 -6.18544,-32.0244z"/>
  <path class="fil1" d="M1039.49 378.025c8.69764,15.3248 28.1752,20.6977 43.5,12 15.3248,-8.69764 20.6977,-28.1752 12,-43.5l-52.6465 -92.5253 0.0625985 -0.0755906c-6.48189,-11.3906 -18.9024,-17.2831 -31.1516,-16.0051l-88.2851 1.32874 -0.106299 -0.120473c-12.7784,0.19252 -23.6929,7.85079 -28.6571,18.7571l-49.6678 88.891c-8.55946,15.3945 -3.0189,34.8154 12.3756,43.3748 15.3945,8.55946 34.8154,3.0189 43.3748,-12.3756 63.8528,-1.84606 81.7524,-20.1166 139.201,0.250394z"/>
  <path class="fil1" d="M786.434 316.876c-16.7067,-5.65985 -34.8402,3.2941 -40.5,20.0008 -5.65985,16.7067 3.2941,34.8402 20.0008,40.5 64.9099,22.154 133.641,33.3874 202.895,33.3874 68.4721,0 137.79,-11.0291 204.764,-33.3874 16.7067,-5.59134 25.7162,-23.6693 20.1248,-40.376 -5.59134,-16.7067 -23.6693,-25.7162 -40.376,-20.1248 -59.9516,20.0138 -122.424,29.8866 -184.513,29.8866 -62.504,0 -124.291,-10.0559 -182.395,-29.8866z"/>
  <path class="fil1" d="M1246.12 1290.62l-21.8433 9.75001 -90.1831 -201.299c-0.31063,-0.56693 -0.602363,-1.15039 -0.871654,-1.7504 -5.4189,-12.0957 -0.00590552,-26.2961 12.0898,-31.715l9.81261 21.9024 -9.75001 -21.8433 288.347 -129.182c0.56693,-0.31063 1.15039,-0.602363 1.7504,-0.871654 12.0957,-5.4189 26.2961,-0.00590552 31.715,12.0898l-21.9024 9.81261 21.8433 -9.75001 90.1831 201.299c0.31063,0.56693 0.602363,1.15039 0.871654,1.7504 5.4189,12.0957 0.00590552,26.2961 -12.0898,31.715l-9.81261 -21.9024 9.75001 21.8433 -288.347 129.182c-0.56693,0.31063 -1.15039,0.602363 -1.7504,0.871654 -12.0957,5.4189 -26.2961,0.00590552 -31.715,-12.0898l21.9024 -9.81261z"/>
  <path class="fil1" d="M1338 1005.56c3.58937,8.04213 13.0193,11.6516 21.0614,8.06221 8.04213,-3.58937 11.6516,-13.0193 8.06221,-21.0614l-14.524 -32.4189c-5.16969,-11.5441 -14.5429,-19.904 -25.4717,-24.0697 -10.9205,-4.16221 -23.4626,-4.16693 -34.9784,0.992127l-50.3115 22.5402c-11.5429,5.17205 -19.904,14.5429 -24.0697,25.4717 -4.16221,10.9193 -4.16575,23.4614 0.992127,34.9772l14.5252 32.4201c3.58937,8.04213 13.0193,11.6516 21.0614,8.06221 8.04213,-3.58937 11.6516,-13.0193 8.06221,-21.0614l-14.5252 -32.4201c-1.54134,-3.44173 -1.5189,-7.24961 -0.240945,-10.6039 1.27559,-3.34725 3.77835,-6.19134 7.1941,-7.72205l50.3115 -22.5402c3.44173,-1.54134 7.25079,-1.5189 10.6051,-0.240945 3.34725,1.27559 6.19252,3.77835 7.72205,7.1941l14.524 32.4189z"/>
 </g>
 <rect class="fil2" width="2048" height="2048"/>
</svg>
